<svg xmlns="http://www.w3.org/2000/svg" viewBox="0 0 200 200">
  <defs>
    <linearGradient id="jhGrad" x1="0" y1="0" x2="1" y2="1">
      <stop offset="0%" stop-color="#0A6CC9"/>
      <stop offset="100%" stop-color="#083F73"/>
    </linearGradient>
  </defs>
  <rect x="8" y="8" width="184" height="184" rx="40" fill="url(#jhGrad)"/>
  <g fill="#FFFFFF">
    <ellipse cx="100" cy="64" rx="9" ry="23"/>
    <ellipse cx="64" cy="100" rx="23" ry="9"/>
    <ellipse cx="136" cy="100" rx="23" ry="9"/>
    <ellipse cx="100" cy="136" rx="9" ry="23"/>
    <circle cx="100" cy="100" r="7"/>
  </g>
  <g fill="#B08D46">
    <rect x="94.5" y="30.5" width="11" height="11" rx="2" transform="rotate(45 100 36)"/>
    <rect x="30.5" y="94.5" width="11" height="11" rx="2" transform="rotate(45 36 100)"/>
    <rect x="158.5" y="94.5" width="11" height="11" rx="2" transform="rotate(45 164 100)"/>
    <rect x="94.5" y="158.5" width="11" height="11" rx="2" transform="rotate(45 100 164)"/>
  </g>
</svg>
